<svg width="24" height="24" viewBox="0 0 24 24" fill="none" xmlns="http://www.w3.org/2000/svg">
<path fill-rule="evenodd" clip-rule="evenodd" d="M4.25 12C4.25 11.5858 4.58579 11.25 5 11.25H19C19.4142 11.25 19.75 11.5858 19.75 12C19.75 12.4142 19.4142 12.75 19 12.75H5C4.58579 12.75 4.25 12.4142 4.25 12Z" fill="#ffffff"/>
<path fill-rule="evenodd" clip-rule="evenodd" d="M12.5303 4.46967C12.8232 4.76256 12.8232 5.23744 12.5303 5.53033L6.06066 12L12.5303 18.4697C12.8232 18.7626 12.8232 19.2374 12.5303 19.5303C12.2374 19.8232 11.7626 19.8232 11.4697 19.5303L4.46967 12.5303C4.17678 12.2374 4.17678 11.7626 4.46967 11.4697L11.4697 4.46967C11.7626 4.17678 12.2374 4.17678 12.5303 4.46967Z" fill="#ffffff"/>
</svg>
