<?xml version="1.0"?>
<svg xmlns="http://www.w3.org/2000/svg" xmlns:xlink="http://www.w3.org/1999/xlink" xmlns:svgjs="http://svgjs.com/svgjs" version="1.1" width="512" height="512" x="0" y="0" viewBox="0 0 512 512" style="enable-background:new 0 0 512 512" xml:space="preserve"><g><g xmlns="http://www.w3.org/2000/svg"><path d="m507.606 145.568-141.174-141.174c-2.813-2.813-6.628-4.394-10.606-4.394h-199.652c-3.978 0-7.793 1.581-10.606 4.394l-141.174 141.174c-2.813 2.813-4.394 6.628-4.394 10.606v199.651c0 3.978 1.581 7.793 4.394 10.606l141.174 141.174c2.813 2.813 6.628 4.394 10.606 4.394h199.651c3.978 0 7.793-1.581 10.606-4.394l141.174-141.174c2.813-2.813 4.394-6.628 4.394-10.606v-199.651c.001-3.978-1.58-7.793-4.393-10.606zm-25.606 204.044-132.388 132.388h-187.224l-132.388-132.388v-187.224l132.388-132.388h187.225l132.387 132.388z" fill="#ff0000" data-original="#000000" style=""/><path d="m291 91h-70c-8.771 0-15.679 7.505-14.948 16.25l15.05 180c.65 7.772 7.148 13.75 14.948 13.75h39.9c7.8 0 14.298-5.978 14.948-13.75l15.05-180c.731-8.74-6.172-16.25-14.948-16.25zm-28.848 180h-12.304l-12.542-150h37.387z" fill="#ff0000" data-original="#000000" style=""/><path d="m256 331c-24.786 0-44.95 20.165-44.95 44.95v.1c0 24.786 20.165 44.95 44.95 44.95s44.95-20.165 44.95-45.05c0-24.785-20.164-44.95-44.95-44.95zm0 60c-8.244 0-14.95-6.707-14.95-14.95v-.1c0-8.244 6.707-14.95 14.95-14.95s14.95 6.707 14.95 15.05c0 8.243-6.706 14.95-14.95 14.95z" fill="#ff0000" data-original="#000000" style=""/></g></g></svg>
